<svg
  viewBox="0 0 64 64"
  xmlns="http://www.w3.org/2000/svg"
  stroke="currentColor"
  stroke-width="4"
  fill="none"
  class="lucide lucide-hamburger"
>
  <path
    d="M61.9334,39.48a3.97,3.97,0,0,0,.9235-6.2711A30.9814,30.9814,0,0,0,1.1426,33.21a3.97,3.97,0,0,0,.924,6.27A5.9819,5.9819,0,0,0,3,49.1882V53a5.9939,5.9939,0,0,0,5.667,6H55.333A5.9939,5.9939,0,0,0,61,53V49.1882a5.9819,5.9819,0,0,0,.9334-9.7083ZM32,7A29.038,29.038,0,0,1,60.7265,32.0735,3.9811,3.9811,0,0,0,60,32H4a3.9867,3.9867,0,0,0-.7211.0729A29.0339,29.0339,0,0,1,32,7ZM2,36a2.0023,2.0023,0,0,1,2-2H60a2,2,0,0,1,0,4H4A2.0023,2.0023,0,0,1,2,36ZM59,53a4.0064,4.0064,0,0,1-3.667,4H8.667A4.0064,4.0064,0,0,1,5,53V49.91A5.9938,5.9938,0,0,0,6,50H58a5.9938,5.9938,0,0,0,1-.09Zm-1-5H6a4,4,0,0,1,0-8H58a4,4,0,0,1,0,8ZM21,19V17a1,1,0,0,1,2,0v2a1,1,0,0,1-2,0Zm10,0V17a1,1,0,0,1,2,0v2a1,1,0,0,1-2,0Zm10,0V17a1,1,0,0,1,2,0v2a1,1,0,0,1-2,0ZM26,25V23a1,1,0,0,1,2,0v2a1,1,0,0,1-2,0Zm10,0V23a1,1,0,0,1,2,0v2a1,1,0,0,1-2,0Z"
  />
</svg>
